<?xml version="1.0" standalone="no"?>
<!DOCTYPE svg PUBLIC "-//W3C//DTD SVG 20010904//EN"
 "http://www.w3.org/TR/2001/REC-SVG-20010904/DTD/svg10.dtd">
<svg version="1.0" xmlns="http://www.w3.org/2000/svg"
 width="700.000000pt" height="700.000000pt" viewBox="0 0 700.000000 700.000000"
 preserveAspectRatio="xMidYMid meet">
<metadata>
Created by potrace 1.14, written by Peter Selinger 2001-2017
</metadata>
<g transform="translate(0.000000,700.000000) scale(0.100000,-0.100000)"
fill="#000000" stroke="none">
<path d="M0 3500 l0 -3500 3500 0 3500 0 0 3500 0 3500 -3500 0 -3500 0 0
-3500z m4341 1066 c131 -25 298 -101 394 -180 l30 -24 -85 -174 c-46 -95 -85
-174 -86 -176 -1 -2 -43 27 -93 65 -153 117 -238 147 -400 141 -83 -3 -105 -7
-163 -35 -207 -98 -310 -358 -295 -743 16 -407 165 -623 447 -647 137 -12 260
27 406 129 44 30 78 47 84 42 23 -24 210 -268 210 -274 0 -13 -108 -94 -196
-148 -169 -102 -388 -147 -604 -123 -347 37 -589 200 -738 496 -153 306 -159
818 -14 1128 170 363 495 557 907 542 66 -2 154 -11 196 -19z m-2261 -61 l70
-35 -23 -48 c-13 -26 -237 -487 -497 -1024 -261 -538 -480 -978 -486 -978 -6
0 -43 15 -81 33 l-70 32 393 810 c217 446 441 908 499 1028 58 119 110 217
115 217 6 0 42 -16 80 -35z m3873 -6 l57 -29 -36 -73 c-20 -39 -229 -468 -464
-952 -235 -484 -445 -914 -466 -956 l-39 -77 -77 37 -78 36 483 995 c266 547
491 1010 501 1028 20 38 25 37 119 -9z m-3400 -280 c114 -31 179 -174 128
-284 -96 -207 -421 -141 -421 85 0 145 142 241 293 199z m157 -1004 l0 -535
160 0 160 0 0 -130 0 -130 -530 0 -530 0 0 130 0 130 185 0 185 0 0 400 0 400
-175 0 -175 0 0 135 0 135 360 0 360 0 0 -535z"/>
</g>
</svg>
