<?xml version="1.0" encoding="UTF-8"?>
<svg xmlns="http://www.w3.org/2000/svg" viewBox="0 0 1920 1920">
  <g id="a" data-name="background">
    <rect width="1920" height="1920" style="fill: #231f20; stroke-width: 0px;"/>
  </g>
  <g id="b" data-name="Layer 1">
    <path d="M1124.98,661.64c40.74,0,75.4,5.4,103.97,16.21,28.57,10.8,54.76,26.03,78.54,45.72l-48.2,97.39c-15.59-12.84-50.64-40.86-69.51-48.39-18.86-7.51-39.36-11.27-61.51-11.27-23.79,0-45.52,6.77-65.21,20.29-19.69,13.54-35.4,34.86-47.16,63.99-11.76,29.11-17.64,66.91-17.64,113.39s5.67,82.91,17.02,111.76c11.35,28.84,27,50.04,46.97,63.56,19.95,13.54,42.78,20.31,68.49,20.31,28.43,0,52.09-5.34,70.95-16,18.86-10.66,36.22-22.28,52.09-34.86l61.1,77.92c-21.32,21.05-47.57,39.1-78.74,54.14-31.17,15.03-68.77,22.56-112.79,22.56-51.4,0-96.99-11.42-136.77-34.25-39.79-22.82-70.95-56.45-93.51-100.89-22.55-44.42-33.83-99.17-33.83-164.24s11.69-117.3,35.07-161.59c23.38-44.29,55.16-77.99,95.34-101.09,40.2-23.1,85.31-34.66,135.34-34.66Z" style="fill: #fff; stroke-width: 0px;"/>
    <path d="M743.91,891.48v292.26h89.26v74.62h-293.25v-74.62h99.51v-217.64h-96.21v-74.61h200.68ZM680.76,758.54c18.07,0,32.84,5.61,44.3,16.86,11.47,11.24,17.19,25.24,17.19,41.99s-5.72,30.8-17.19,42.15c-11.46,11.36-26.23,17.03-44.3,17.03s-33.23-5.68-44.79-17.03c-11.58-11.35-17.37-25.39-17.37-42.15s5.79-30.75,17.37-41.99c11.56-11.25,26.5-16.86,44.79-16.86Z" style="fill: #ed8230; stroke-width: 0px;"/>
    <path d="M315.89,1258.36l-43.62-19.25,274.57-566.12,42.98,21.17-273.92,564.21Z" style="fill: #fff; stroke-width: 0px;"/>
    <path d="M1373.81,1258.36l-43.62-19.25,274.57-566.12,42.98,21.17-273.92,564.21Z" style="fill: #fff; stroke-width: 0px;"/>
  </g>
</svg>